<?xml version="1.0" encoding="UTF-8"?>
<svg width="82px" height="75px" viewBox="0 0 82 75" version="1.1" xmlns="http://www.w3.org/2000/svg" xmlns:xlink="http://www.w3.org/1999/xlink">
    <!-- Generator: Sketch 47.1 (45422) - http://www.bohemiancoding.com/sketch -->
    <title>admirer-icon</title>
    <desc>Created with Sketch.</desc>
    <defs></defs>
    <g id="Site" stroke="none" stroke-width="1" fill="none" fill-rule="evenodd">
        <g id="01.homepage" transform="translate(-1121.000000, -2875.000000)" fill-rule="nonzero">
            <g id="projets" transform="translate(242.000000, 2634.000000)">
                <g id="admirez" transform="translate(780.000000, 178.000000)">
                    <g id="Group-4-Copy-2">
                        <g id="admirer-icon" transform="translate(99.000000, 63.000000)">
                            <path d="M65.4858716,26 L65.4858716,67.0632123 C65.4847815,67.9715988 64.7473221,68.7077201 63.8372844,68.7088082 L59,68.7088082 L59,72 L67.2429358,72 C68.1529734,71.9989119 68.8904329,71.2627905 68.891523,70.3544041 L68.891523,29.214507 L69,29.214507 L65.4858716,26 Z" id="Shape" fill="#B8EEFF"></path>
                            <rect id="Rectangle-path" fill="#B8EEFF" x="23" y="49" width="7" height="7"></rect>
                            <path d="M55.6734467,68 L13,68 L13,69.5 C13,70.3268 14.37396,71 16.0625,71 L62,71 L62,68 L55.6734467,68 Z" id="Shape" fill="#B8EEFF"></path>
                            <path d="M81.4680167,36.2973841 L42.1082896,0.427509941 C41.4806468,-0.142503314 40.5193237,-0.142503314 39.8916809,0.427509941 L0.531953798,36.2973841 C-0.135848777,36.9059231 -0.181004998,37.9374533 0.431094554,38.6013713 C1.04319411,39.2652893 2.0807598,39.3101829 2.74856243,38.7016439 L9.84052926,32.2388709 L9.84052926,70.1086535 C9.84052926,72.8100696 12.043273,75 14.7604952,75 L67.2401313,75 C69.9573535,75 72.1600972,72.8100696 72.1600972,70.1086535 L72.1600972,32.2388709 L79.251408,38.7016439 C79.6834006,39.0952996 80.2938198,39.2299279 80.8527266,39.0548154 C81.4116335,38.879703 81.8341167,38.4214536 81.961031,37.8526855 C82.0879452,37.2839173 81.9000093,36.6910398 81.4680167,36.2973841 L81.4680167,36.2973841 Z M42.6403019,71.7391024 L42.6403019,48.9128188 L55.7602109,48.9128188 L55.7602109,71.7391024 L42.6403019,71.7391024 Z M68.88012,29.3474329 L68.88012,70.1086535 C68.8790356,71.0086786 68.1454225,71.7380243 67.2401313,71.7391024 L59.0401882,71.7391024 L59.0401882,48.9128188 C59.0401882,47.1118748 57.5716923,45.6519212 55.7602109,45.6519212 L42.6403019,45.6519212 C40.8288204,45.6519212 39.3603246,47.1118748 39.3603246,48.9128188 L39.3603246,71.7391024 L14.7604952,71.7391024 C13.855204,71.7380243 13.1215909,71.0086786 13.1205065,70.1086535 L13.1205065,29.3474329 L13.0122673,29.3474329 L41.0003132,3.84134369 L68.9880312,29.3474329 L68.88012,29.3474329 Z" id="Shape" fill="#22C0F1"></path>
                            <path d="M29.75,46 L23.25,46 C21.4550746,46 20,47.4550746 20,49.25 L20,55.75 C20,57.5449254 21.4550746,59 23.25,59 L29.75,59 C31.5449254,59 33,57.5449254 33,55.75 L33,49.25 C33,47.4550746 31.5449254,46 29.75,46 Z M29.75,55.75 L23.25,55.75 L23.25,49.25 L29.75,49.25 L29.75,55.75 Z" id="Shape" fill="#22C0F1"></path>
                        </g>
                    </g>
                </g>
            </g>
        </g>
    </g>
</svg>