<?xml version="1.0" encoding="UTF-8"?>
<svg width="75px" height="72px" viewBox="0 0 75 72" version="1.1" xmlns="http://www.w3.org/2000/svg" xmlns:xlink="http://www.w3.org/1999/xlink">
    <!-- Generator: Sketch 47.1 (45422) - http://www.bohemiancoding.com/sketch -->
    <title>publier-icon</title>
    <desc>Created with Sketch.</desc>
    <defs></defs>
    <g id="Site" stroke="none" stroke-width="1" fill="none" fill-rule="evenodd">
        <g id="01.homepage" transform="translate(-345.000000, -2876.000000)" fill-rule="nonzero">
            <g id="projets" transform="translate(242.000000, 2634.000000)">
                <g id="publiez" transform="translate(0.000000, 178.000000)">
                    <g id="Group-4">
                        <g id="publier-icon" transform="translate(103.000000, 64.000000)">
                            <path d="M51,48.6647624 C51.5643333,48.9086928 71,63 71,63 L71,56.3352376 C71,56.3352376 51.5643333,42.2442635 51,42 L51,48.6647624 Z" id="Shape" fill="#B8EEFF"></path>
                            <path d="M16.5384615,41.2 C10.3822401,41.181482 5.0151439,36.989031 3.48061538,31 C3.176379,32.1080338 3.01485638,33.2506874 3,34.4 C3.00839365,41.9075773 9.06485522,47.9915682 16.5384615,48 L47,48 L47,41.2 L16.5384615,41.2 L16.5384615,41.2 Z" id="Shape" fill="#B8EEFF"></path>
                            <path d="M73.2903382,2.19432428e-06 C72.9551787,0.000551119366 72.6278048,0.101662082 72.350111,0.290395727 L50.7797709,16.1512996 C49.903896,16.7955554 48.8468467,17.1427059 47.7617029,17.1424776 L17.0454541,17.1424776 C10.9556999,17.1424775 5.32853496,20.4098148 2.28365784,25.7137152 C-0.76121928,31.0176156 -0.76121928,37.5522903 2.28365784,42.8561907 C5.32853496,48.1600911 10.9556999,51.4274284 17.0454541,51.4274283 L20.4545449,51.4274283 L20.4545449,66.8556562 C20.4521362,68.3972547 21.1383704,69.8584196 22.3238051,70.8357803 C23.5092397,71.813141 25.0685002,72.2033294 26.5711355,71.8986296 L32.7565898,70.6547716 C35.4179418,70.1194049 37.1998099,67.5863298 36.8157942,64.8842715 L34.9046579,51.4287997 L47.761362,51.4287997 C48.846082,51.4292753 49.9025527,51.7766328 50.7780664,52.4206634 L72.3480655,68.2808816 C72.6259179,68.4699386 72.9535044,68.5714 73.2889746,68.5723037 C73.7428901,68.5734899 74.1785742,68.3927652 74.49967,68.0700992 C74.8207657,67.7474331 75.0008148,67.3094134 74.9999972,66.8529134 L74.9999972,1.71664968 C74.9999978,1.26089084 74.8197865,0.823838659 74.4990846,0.501825847 C74.1783827,0.179813034 73.743517,-0.000726000345 73.2903382,2.19432428e-06 Z M33.4411353,65.3673465 C33.5685921,66.2680973 32.9749828,67.1123639 32.0880671,67.2917607 L25.9026128,68.5345902 C25.7890215,68.5574528 25.6734567,68.5689372 25.5576129,68.5688752 C24.6203482,68.5630309 23.8636176,67.7972453 23.8636357,66.8546276 L23.8636357,51.4263998 L31.4607944,51.4263998 L33.4411353,65.3673465 Z M34.4174989,47.9989333 L17.0454541,47.9989333 C9.51429874,47.9989333 3.40909103,41.8589751 3.40909103,34.284953 C3.40909103,26.7109308 9.51429874,20.5709726 17.0454541,20.5709726 L40.9090895,20.5709726 L40.9090895,32.5707054 C40.9090895,33.5174582 41.6722405,34.284953 42.6136349,34.284953 C43.5550293,34.284953 44.3181803,33.5174582 44.3181803,32.5707054 L44.3181803,20.5709726 L47.7272711,20.5709726 L47.7272711,47.9989333 L34.4174989,47.9989333 Z M71.5909065,63.4737886 C71.5909065,63.4737886 51.7135209,48.9763972 51.1363618,48.7250885 L51.1363618,19.8441317 C51.7135209,19.5921373 71.5909065,5.09131738 71.5909065,5.09131738 L71.5909065,63.4737886 Z" id="Shape" fill="#22C0F1"></path>
                        </g>
                    </g>
                </g>
            </g>
        </g>
    </g>
</svg>